<?xml version="1.0" standalone="no"?>
<!DOCTYPE svg PUBLIC "-//W3C//DTD SVG 20010904//EN"
 "http://www.w3.org/TR/2001/REC-SVG-20010904/DTD/svg10.dtd">
<svg version="1.0" xmlns="http://www.w3.org/2000/svg"
 width="256.000000pt" height="256.000000pt" viewBox="0 0 256.000000 256.000000"
 preserveAspectRatio="xMidYMid meet">

<g transform="translate(0.000000,256.000000) scale(0.100000,-0.100000)"
fill="#000000" stroke="none">
<path d="M874 2227 c-3 -8 -4 -36 -2 -63 3 -45 5 -49 28 -49 24 0 25 3 25 60
0 55 -2 60 -23 63 -12 2 -24 -3 -28 -11z"/>
<path d="M1647 2049 c-87 -93 -358 -398 -462 -519 -49 -58 -131 -150 -183
-204 -52 -54 -101 -115 -109 -135 -19 -44 -12 -130 18 -226 22 -73 85 -150
129 -158 14 -3 71 -12 128 -21 111 -17 205 -54 223 -88 17 -31 3 -76 -48 -162
-73 -123 -84 -182 -41 -210 24 -15 51 11 43 42 -4 18 8 49 50 122 87 153 94
209 32 267 -57 54 -139 84 -280 103 -45 6 -90 13 -99 16 -42 13 -97 155 -98
251 0 40 6 49 88 135 48 51 153 170 233 263 81 94 221 252 313 353 91 101 166
189 166 197 0 8 -10 19 -21 26 -19 10 -28 5 -82 -52z"/>
<path d="M734 2086 c-14 -36 3 -47 63 -44 54 3 58 5 58 28 0 23 -4 25 -58 28
-44 2 -59 0 -63 -12z"/>
<path d="M936 2084 c-12 -31 13 -45 73 -42 52 3 56 5 56 28 0 24 -3 25 -61 28
-50 2 -63 0 -68 -14z"/>
<path d="M881 2031 c-8 -5 -11 -28 -9 -67 3 -55 4 -59 28 -59 23 0 25 4 28 57
2 47 0 59 -16 67 -10 5 -24 6 -31 2z"/>
<path d="M1150 1885 c-15 -18 -7 -43 16 -52 24 -9 46 24 33 48 -12 23 -32 24
-49 4z"/>
<path d="M702 1685 c-38 -32 -48 -72 -28 -118 29 -71 108 -87 162 -33 27 27
34 42 34 73 -1 88 -101 135 -168 78z m93 -80 c0 -25 -4 -30 -24 -30 -32 0 -49
28 -31 50 7 9 23 15 34 13 16 -2 21 -10 21 -33z"/>
<path d="M1805 1074 c-9 -9 -14 -23 -11 -30 3 -8 13 -51 22 -96 28 -136 11
-210 -60 -262 -22 -17 -42 -21 -114 -21 -81 0 -87 -2 -90 -21 -5 -34 22 -46
100 -47 164 0 244 83 242 253 0 94 -29 217 -54 230 -14 7 -23 6 -35 -6z"/>
<path d="M1397 1038 c-22 -18 -37 -61 -37 -112 0 -53 19 -81 48 -72 19 6 22
15 22 66 0 32 3 61 8 63 14 9 48 -11 97 -56 l50 -44 -32 -7 c-35 -8 -49 -31
-32 -53 9 -10 33 -13 93 -11 72 3 81 5 84 23 3 26 -75 116 -151 172 -63 46
-115 56 -150 31z"/>
</g>
</svg>
