<?xml version="1.0" standalone="no"?>
<!DOCTYPE svg PUBLIC "-//W3C//DTD SVG 20010904//EN"
 "http://www.w3.org/TR/2001/REC-SVG-20010904/DTD/svg10.dtd">
<svg version="1.0" xmlns="http://www.w3.org/2000/svg"
 width="128.000000pt" height="128.000000pt" viewBox="0 0 128.000000 128.000000"
 preserveAspectRatio="xMidYMid meet">

<g transform="translate(0.000000,128.000000) scale(0.100000,-0.100000)"
fill="#000000" stroke="none">
<path d="M434 1106 c-9 -23 0 -51 16 -51 10 0 15 10 15 29 0 32 -21 47 -31 22z"/>
<path d="M367 1044 c-12 -12 4 -24 34 -24 19 0 29 5 29 15 0 15 -50 22 -63 9z"/>
<path d="M470 1035 c0 -10 10 -15 30 -15 20 0 30 5 30 15 0 10 -10 15 -30 15
-20 0 -30 -5 -30 -15z"/>
<path d="M715 903 c-71 -81 -155 -175 -186 -208 -94 -101 -101 -118 -78 -197
18 -67 47 -91 128 -104 77 -13 121 -35 121 -61 0 -8 -14 -40 -31 -69 -30 -54
-35 -94 -11 -102 6 -2 12 4 12 13 0 9 14 42 31 75 42 80 38 117 -16 147 -22
12 -60 25 -85 28 -25 3 -55 8 -66 10 -28 6 -54 62 -54 114 0 37 7 49 62 110
136 146 323 363 326 377 9 38 -34 1 -153 -133z"/>
<path d="M434 1006 c-9 -23 0 -51 16 -51 10 0 15 10 15 29 0 32 -21 47 -31 22z"/>
<path d="M577 943 c-12 -11 -8 -23 8 -23 8 0 15 7 15 15 0 16 -12 20 -23 8z"/>
<path d="M362 849 c-32 -12 -40 -56 -14 -81 40 -40 103 2 83 55 -11 28 -37 38
-69 26z m38 -44 c0 -8 -7 -15 -15 -15 -8 0 -15 7 -15 15 0 8 7 15 15 15 8 0
15 -7 15 -15z"/>
<path d="M907 458 c5 -77 4 -85 -16 -103 -12 -10 -42 -22 -67 -25 -25 -3 -45
-9 -44 -15 0 -14 85 -18 110 -5 30 16 60 70 60 108 0 51 -21 122 -36 122 -10
0 -12 -18 -7 -82z"/>
<path d="M696 515 c-9 -9 -16 -32 -16 -51 0 -28 4 -35 17 -32 11 2 18 12 18
27 0 33 16 36 49 10 25 -19 25 -22 10 -34 -9 -6 -14 -17 -10 -23 9 -15 73 -16
81 -2 9 15 -18 54 -57 83 -46 35 -73 41 -92 22z"/>
</g>
</svg>
